<mxfile host="app.diagrams.net" modified="2024-04-07T19:30:22.053Z" agent="Mozilla/5.0 (Windows NT 10.0; Win64; x64) AppleWebKit/537.36 (KHTML, like Gecko) Chrome/123.0.0.0 Safari/537.36" etag="4FTUzT22aunDkGN34xvI" version="24.0.7" type="github">
  <diagram name="Страница — 1" id="fj6lrmXVxRB_4Peb10d_">
    <mxGraphModel dx="1392" dy="506" grid="0" gridSize="10" guides="1" tooltips="1" connect="1" arrows="1" fold="1" page="0" pageScale="1" pageWidth="827" pageHeight="1169" math="0" shadow="0">
      <root>
        <mxCell id="0" />
        <mxCell id="1" parent="0" />
        <mxCell id="rCWNc3j6BpbmJCndLFvj-28" value="" style="endArrow=none;dashed=1;html=1;rounded=0;entryX=0.5;entryY=1;entryDx=0;entryDy=0;" parent="1" edge="1">
          <mxGeometry width="50" height="50" relative="1" as="geometry">
            <mxPoint x="318" y="432" as="sourcePoint" />
            <mxPoint x="318" y="280" as="targetPoint" />
          </mxGeometry>
        </mxCell>
        <mxCell id="rCWNc3j6BpbmJCndLFvj-1" value="Официант" style="rounded=0;whiteSpace=wrap;html=1;" parent="1" vertex="1">
          <mxGeometry x="68.5" y="89" width="120" height="40" as="geometry" />
        </mxCell>
        <mxCell id="rCWNc3j6BpbmJCndLFvj-2" value="Клиент" style="shape=umlActor;verticalLabelPosition=bottom;verticalAlign=top;html=1;outlineConnect=0;" parent="1" vertex="1">
          <mxGeometry x="-67.5" y="81" width="22" height="45" as="geometry" />
        </mxCell>
        <mxCell id="rCWNc3j6BpbmJCndLFvj-5" value="" style="rounded=0;whiteSpace=wrap;html=1;rotation=90;" parent="1" vertex="1">
          <mxGeometry x="-194" y="280" width="275" height="12" as="geometry" />
        </mxCell>
        <mxCell id="rCWNc3j6BpbmJCndLFvj-8" value="" style="rounded=0;whiteSpace=wrap;html=1;rotation=90;" parent="1" vertex="1">
          <mxGeometry x="38.75" y="297.25" width="179.5" height="12" as="geometry" />
        </mxCell>
        <mxCell id="rCWNc3j6BpbmJCndLFvj-9" value="Повар" style="rounded=0;whiteSpace=wrap;html=1;" parent="1" vertex="1">
          <mxGeometry x="258.5" y="89" width="120" height="40" as="geometry" />
        </mxCell>
        <mxCell id="rCWNc3j6BpbmJCndLFvj-10" value="" style="rounded=0;whiteSpace=wrap;html=1;rotation=90;" parent="1" vertex="1">
          <mxGeometry x="288.31" y="247" width="60.38" height="12" as="geometry" />
        </mxCell>
        <mxCell id="rCWNc3j6BpbmJCndLFvj-11" value="" style="endArrow=classic;html=1;rounded=0;" parent="1" edge="1">
          <mxGeometry width="50" height="50" relative="1" as="geometry">
            <mxPoint x="-53" y="233.03" as="sourcePoint" />
            <mxPoint x="125" y="231" as="targetPoint" />
          </mxGeometry>
        </mxCell>
        <mxCell id="rCWNc3j6BpbmJCndLFvj-12" value="Заказ блюда" style="edgeLabel;html=1;align=center;verticalAlign=middle;resizable=0;points=[];" parent="rCWNc3j6BpbmJCndLFvj-11" vertex="1" connectable="0">
          <mxGeometry x="0.1055" relative="1" as="geometry">
            <mxPoint x="-13" y="-9" as="offset" />
          </mxGeometry>
        </mxCell>
        <mxCell id="rCWNc3j6BpbmJCndLFvj-13" value="" style="endArrow=classic;html=1;rounded=0;" parent="1" edge="1">
          <mxGeometry width="50" height="50" relative="1" as="geometry">
            <mxPoint x="135" y="246.02999999999997" as="sourcePoint" />
            <mxPoint x="313" y="244" as="targetPoint" />
          </mxGeometry>
        </mxCell>
        <mxCell id="rCWNc3j6BpbmJCndLFvj-14" value="Передать информацию и блюде" style="edgeLabel;html=1;align=center;verticalAlign=middle;resizable=0;points=[];" parent="rCWNc3j6BpbmJCndLFvj-13" vertex="1" connectable="0">
          <mxGeometry x="0.1055" relative="1" as="geometry">
            <mxPoint x="-10" y="-12" as="offset" />
          </mxGeometry>
        </mxCell>
        <mxCell id="rCWNc3j6BpbmJCndLFvj-16" value="" style="endArrow=none;dashed=1;html=1;rounded=0;exitX=0;exitY=0.5;exitDx=0;exitDy=0;entryX=0.5;entryY=1;entryDx=0;entryDy=0;" parent="1" target="rCWNc3j6BpbmJCndLFvj-1" edge="1">
          <mxGeometry width="50" height="50" relative="1" as="geometry">
            <mxPoint x="128.5" y="213.5" as="sourcePoint" />
            <mxPoint x="135" y="155" as="targetPoint" />
          </mxGeometry>
        </mxCell>
        <mxCell id="rCWNc3j6BpbmJCndLFvj-17" value="" style="endArrow=none;dashed=1;html=1;rounded=0;exitX=0;exitY=0.5;exitDx=0;exitDy=0;entryX=0.5;entryY=1;entryDx=0;entryDy=0;" parent="1" source="rCWNc3j6BpbmJCndLFvj-10" target="rCWNc3j6BpbmJCndLFvj-9" edge="1">
          <mxGeometry width="50" height="50" relative="1" as="geometry">
            <mxPoint x="318" y="206.5" as="sourcePoint" />
            <mxPoint x="331" y="146" as="targetPoint" />
          </mxGeometry>
        </mxCell>
        <mxCell id="rCWNc3j6BpbmJCndLFvj-18" value="Заказы" style="rounded=0;whiteSpace=wrap;html=1;" parent="1" vertex="1">
          <mxGeometry x="471" y="89" width="120" height="40" as="geometry" />
        </mxCell>
        <mxCell id="rCWNc3j6BpbmJCndLFvj-19" value="" style="rounded=0;whiteSpace=wrap;html=1;rotation=90;" parent="1" vertex="1">
          <mxGeometry x="514.5" y="336" width="50.5" height="12" as="geometry" />
        </mxCell>
        <mxCell id="rCWNc3j6BpbmJCndLFvj-20" value="" style="endArrow=none;dashed=1;html=1;rounded=0;exitX=0;exitY=0.5;exitDx=0;exitDy=0;entryX=0.577;entryY=1;entryDx=0;entryDy=0;entryPerimeter=0;" parent="1" source="rCWNc3j6BpbmJCndLFvj-19" target="rCWNc3j6BpbmJCndLFvj-18" edge="1">
          <mxGeometry width="50" height="50" relative="1" as="geometry">
            <mxPoint x="539.25" y="236.5" as="sourcePoint" />
            <mxPoint x="540.25" y="159" as="targetPoint" />
          </mxGeometry>
        </mxCell>
        <mxCell id="rCWNc3j6BpbmJCndLFvj-21" value="" style="endArrow=classic;html=1;rounded=0;entryX=0.5;entryY=1;entryDx=0;entryDy=0;" parent="1" edge="1">
          <mxGeometry width="50" height="50" relative="1" as="geometry">
            <mxPoint x="137" y="332" as="sourcePoint" />
            <mxPoint x="535.75" y="330" as="targetPoint" />
          </mxGeometry>
        </mxCell>
        <mxCell id="rCWNc3j6BpbmJCndLFvj-22" value="Запрос на добавление заказа" style="edgeLabel;html=1;align=center;verticalAlign=middle;resizable=0;points=[];" parent="rCWNc3j6BpbmJCndLFvj-21" vertex="1" connectable="0">
          <mxGeometry x="0.1055" relative="1" as="geometry">
            <mxPoint x="-42" y="-12" as="offset" />
          </mxGeometry>
        </mxCell>
        <mxCell id="rCWNc3j6BpbmJCndLFvj-26" style="rounded=0;orthogonalLoop=1;jettySize=auto;html=1;entryX=0.795;entryY=0.131;entryDx=0;entryDy=0;entryPerimeter=0;dashed=1;endArrow=open;endFill=0;exitX=0.75;exitY=1;exitDx=0;exitDy=0;" parent="1" source="rCWNc3j6BpbmJCndLFvj-19" target="rCWNc3j6BpbmJCndLFvj-8" edge="1">
          <mxGeometry relative="1" as="geometry" />
        </mxCell>
        <mxCell id="rCWNc3j6BpbmJCndLFvj-27" value="Статус заказа" style="edgeLabel;html=1;align=center;verticalAlign=middle;resizable=0;points=[];" parent="rCWNc3j6BpbmJCndLFvj-26" vertex="1" connectable="0">
          <mxGeometry x="-0.3296" y="1" relative="1" as="geometry">
            <mxPoint x="-87" y="15" as="offset" />
          </mxGeometry>
        </mxCell>
        <mxCell id="rCWNc3j6BpbmJCndLFvj-30" style="rounded=0;orthogonalLoop=1;jettySize=auto;html=1;entryX=0.814;entryY=-0.093;entryDx=0;entryDy=0;entryPerimeter=0;dashed=1;endArrow=open;endFill=0;exitX=0.876;exitY=0.836;exitDx=0;exitDy=0;exitPerimeter=0;" parent="1" source="rCWNc3j6BpbmJCndLFvj-8" target="rCWNc3j6BpbmJCndLFvj-5" edge="1">
          <mxGeometry relative="1" as="geometry">
            <mxPoint x="84" y="360" as="sourcePoint" />
            <mxPoint x="-57" y="362" as="targetPoint" />
          </mxGeometry>
        </mxCell>
        <mxCell id="rCWNc3j6BpbmJCndLFvj-31" value="Выдача статуса заказа" style="edgeLabel;html=1;align=center;verticalAlign=middle;resizable=0;points=[];" parent="rCWNc3j6BpbmJCndLFvj-30" vertex="1" connectable="0">
          <mxGeometry x="-0.3296" y="1" relative="1" as="geometry">
            <mxPoint x="-32" y="14" as="offset" />
          </mxGeometry>
        </mxCell>
        <mxCell id="rCWNc3j6BpbmJCndLFvj-32" value="" style="endArrow=none;dashed=1;html=1;rounded=0;entryX=1;entryY=0.5;entryDx=0;entryDy=0;" parent="1" target="rCWNc3j6BpbmJCndLFvj-19" edge="1">
          <mxGeometry width="50" height="50" relative="1" as="geometry">
            <mxPoint x="540" y="430" as="sourcePoint" />
            <mxPoint x="539.25" y="373" as="targetPoint" />
          </mxGeometry>
        </mxCell>
        <mxCell id="rCWNc3j6BpbmJCndLFvj-33" value="" style="endArrow=none;dashed=1;html=1;rounded=0;entryX=1;entryY=0.5;entryDx=0;entryDy=0;" parent="1" target="rCWNc3j6BpbmJCndLFvj-8" edge="1">
          <mxGeometry width="50" height="50" relative="1" as="geometry">
            <mxPoint x="129" y="429" as="sourcePoint" />
            <mxPoint x="130" y="406" as="targetPoint" />
          </mxGeometry>
        </mxCell>
        <mxCell id="rCWNc3j6BpbmJCndLFvj-34" style="rounded=0;orthogonalLoop=1;jettySize=auto;html=1;dashed=1;endArrow=open;endFill=0;exitX=0.75;exitY=1;exitDx=0;exitDy=0;entryX=0.311;entryY=0.003;entryDx=0;entryDy=0;entryPerimeter=0;" parent="1" source="rCWNc3j6BpbmJCndLFvj-10" target="rCWNc3j6BpbmJCndLFvj-8" edge="1">
          <mxGeometry relative="1" as="geometry">
            <mxPoint x="294" y="265" as="sourcePoint" />
            <mxPoint x="159" y="273" as="targetPoint" />
          </mxGeometry>
        </mxCell>
        <mxCell id="rCWNc3j6BpbmJCndLFvj-35" value="Приготовленное блюдо" style="edgeLabel;html=1;align=center;verticalAlign=middle;resizable=0;points=[];" parent="rCWNc3j6BpbmJCndLFvj-34" vertex="1" connectable="0">
          <mxGeometry x="-0.3296" y="1" relative="1" as="geometry">
            <mxPoint x="-25" y="10" as="offset" />
          </mxGeometry>
        </mxCell>
        <mxCell id="rCWNc3j6BpbmJCndLFvj-36" style="rounded=0;orthogonalLoop=1;jettySize=auto;html=1;dashed=1;endArrow=open;endFill=0;exitX=0.388;exitY=0.9;exitDx=0;exitDy=0;exitPerimeter=0;entryX=0.5;entryY=0;entryDx=0;entryDy=0;" parent="1" source="rCWNc3j6BpbmJCndLFvj-8" target="rCWNc3j6BpbmJCndLFvj-5" edge="1">
          <mxGeometry relative="1" as="geometry">
            <mxPoint x="117" y="283" as="sourcePoint" />
            <mxPoint x="-35" y="284" as="targetPoint" />
          </mxGeometry>
        </mxCell>
        <mxCell id="rCWNc3j6BpbmJCndLFvj-37" value="Приготовленное блюдо" style="edgeLabel;html=1;align=center;verticalAlign=middle;resizable=0;points=[];" parent="rCWNc3j6BpbmJCndLFvj-36" vertex="1" connectable="0">
          <mxGeometry x="-0.3296" y="1" relative="1" as="geometry">
            <mxPoint x="-25" y="10" as="offset" />
          </mxGeometry>
        </mxCell>
        <mxCell id="PiyPGpalVlDWMUJuXc9D-3" style="rounded=0;orthogonalLoop=1;jettySize=auto;html=1;exitX=1;exitY=0.3333333333333333;exitDx=0;exitDy=0;exitPerimeter=0;entryX=0;entryY=0.5;entryDx=0;entryDy=0;endArrow=none;endFill=0;" edge="1" parent="1" source="PiyPGpalVlDWMUJuXc9D-1" target="PiyPGpalVlDWMUJuXc9D-2">
          <mxGeometry relative="1" as="geometry" />
        </mxCell>
        <mxCell id="PiyPGpalVlDWMUJuXc9D-1" value="Клиент" style="shape=umlActor;verticalLabelPosition=bottom;verticalAlign=top;html=1;outlineConnect=0;" vertex="1" parent="1">
          <mxGeometry x="-78" y="616" width="22" height="45" as="geometry" />
        </mxCell>
        <mxCell id="PiyPGpalVlDWMUJuXc9D-15" style="rounded=0;orthogonalLoop=1;jettySize=auto;html=1;endArrow=none;endFill=0;entryX=0.5;entryY=0;entryDx=0;entryDy=0;exitX=0.5;exitY=1;exitDx=0;exitDy=0;" edge="1" parent="1" source="PiyPGpalVlDWMUJuXc9D-2" target="PiyPGpalVlDWMUJuXc9D-14">
          <mxGeometry relative="1" as="geometry" />
        </mxCell>
        <mxCell id="PiyPGpalVlDWMUJuXc9D-18" style="rounded=0;orthogonalLoop=1;jettySize=auto;html=1;exitX=1;exitY=0.5;exitDx=0;exitDy=0;endArrow=none;endFill=0;" edge="1" parent="1" source="PiyPGpalVlDWMUJuXc9D-2" target="PiyPGpalVlDWMUJuXc9D-16">
          <mxGeometry relative="1" as="geometry" />
        </mxCell>
        <mxCell id="PiyPGpalVlDWMUJuXc9D-2" value="Официант" style="rounded=0;whiteSpace=wrap;html=1;" vertex="1" parent="1">
          <mxGeometry x="143" y="610" width="120" height="40" as="geometry" />
        </mxCell>
        <mxCell id="PiyPGpalVlDWMUJuXc9D-4" value="" style="endArrow=classic;html=1;rounded=0;" edge="1" parent="1">
          <mxGeometry width="50" height="50" relative="1" as="geometry">
            <mxPoint x="-35.5" y="622.03" as="sourcePoint" />
            <mxPoint x="13" y="622" as="targetPoint" />
          </mxGeometry>
        </mxCell>
        <mxCell id="PiyPGpalVlDWMUJuXc9D-5" value="Заказ блюда" style="edgeLabel;html=1;align=center;verticalAlign=middle;resizable=0;points=[];" vertex="1" connectable="0" parent="PiyPGpalVlDWMUJuXc9D-4">
          <mxGeometry x="0.1055" relative="1" as="geometry">
            <mxPoint x="-3" y="-12" as="offset" />
          </mxGeometry>
        </mxCell>
        <mxCell id="PiyPGpalVlDWMUJuXc9D-6" value="" style="endArrow=classic;html=1;rounded=0;" edge="1" parent="1">
          <mxGeometry width="50" height="50" relative="1" as="geometry">
            <mxPoint x="-51" y="336" as="sourcePoint" />
            <mxPoint x="127" y="333.97" as="targetPoint" />
          </mxGeometry>
        </mxCell>
        <mxCell id="PiyPGpalVlDWMUJuXc9D-7" value="Информация для заказа" style="edgeLabel;html=1;align=center;verticalAlign=middle;resizable=0;points=[];" vertex="1" connectable="0" parent="PiyPGpalVlDWMUJuXc9D-6">
          <mxGeometry x="0.1055" relative="1" as="geometry">
            <mxPoint x="-13" y="-9" as="offset" />
          </mxGeometry>
        </mxCell>
        <mxCell id="PiyPGpalVlDWMUJuXc9D-8" value="" style="endArrow=classic;html=1;rounded=0;" edge="1" parent="1">
          <mxGeometry width="50" height="50" relative="1" as="geometry">
            <mxPoint x="48.75" y="623.03" as="sourcePoint" />
            <mxPoint x="109" y="623" as="targetPoint" />
          </mxGeometry>
        </mxCell>
        <mxCell id="PiyPGpalVlDWMUJuXc9D-9" value="Информация&lt;div&gt;&amp;nbsp;для заказа&lt;/div&gt;" style="edgeLabel;html=1;align=center;verticalAlign=middle;resizable=0;points=[];" vertex="1" connectable="0" parent="PiyPGpalVlDWMUJuXc9D-8">
          <mxGeometry x="0.1055" relative="1" as="geometry">
            <mxPoint x="-5" y="-21" as="offset" />
          </mxGeometry>
        </mxCell>
        <mxCell id="PiyPGpalVlDWMUJuXc9D-10" style="rounded=0;orthogonalLoop=1;jettySize=auto;html=1;dashed=1;endArrow=open;endFill=0;entryX=0.5;entryY=0;entryDx=0;entryDy=0;" edge="1" parent="1">
          <mxGeometry relative="1" as="geometry">
            <mxPoint x="20" y="643" as="sourcePoint" />
            <mxPoint x="-28" y="643" as="targetPoint" />
          </mxGeometry>
        </mxCell>
        <mxCell id="PiyPGpalVlDWMUJuXc9D-11" value="Приготовленное&lt;div&gt;&amp;nbsp;блюдо&lt;/div&gt;" style="edgeLabel;html=1;align=center;verticalAlign=middle;resizable=0;points=[];" vertex="1" connectable="0" parent="PiyPGpalVlDWMUJuXc9D-10">
          <mxGeometry x="-0.3296" y="1" relative="1" as="geometry">
            <mxPoint x="-8" y="17" as="offset" />
          </mxGeometry>
        </mxCell>
        <mxCell id="PiyPGpalVlDWMUJuXc9D-12" style="rounded=0;orthogonalLoop=1;jettySize=auto;html=1;entryX=0.814;entryY=-0.093;entryDx=0;entryDy=0;entryPerimeter=0;dashed=1;endArrow=open;endFill=0;" edge="1" parent="1">
          <mxGeometry relative="1" as="geometry">
            <mxPoint x="109" y="643" as="sourcePoint" />
            <mxPoint x="51" y="643" as="targetPoint" />
          </mxGeometry>
        </mxCell>
        <mxCell id="PiyPGpalVlDWMUJuXc9D-13" value="Выдача&lt;div&gt;&amp;nbsp;статуса заказа&lt;/div&gt;" style="edgeLabel;html=1;align=center;verticalAlign=middle;resizable=0;points=[];" vertex="1" connectable="0" parent="PiyPGpalVlDWMUJuXc9D-12">
          <mxGeometry x="-0.3296" y="1" relative="1" as="geometry">
            <mxPoint x="-10" y="18" as="offset" />
          </mxGeometry>
        </mxCell>
        <mxCell id="PiyPGpalVlDWMUJuXc9D-14" value="Повар" style="rounded=0;whiteSpace=wrap;html=1;" vertex="1" parent="1">
          <mxGeometry x="143" y="798" width="120" height="40" as="geometry" />
        </mxCell>
        <mxCell id="PiyPGpalVlDWMUJuXc9D-16" value="Заказы" style="rounded=0;whiteSpace=wrap;html=1;" vertex="1" parent="1">
          <mxGeometry x="381" y="610" width="120" height="40" as="geometry" />
        </mxCell>
        <mxCell id="PiyPGpalVlDWMUJuXc9D-20" value="" style="endArrow=classic;html=1;rounded=0;" edge="1" parent="1">
          <mxGeometry width="50" height="50" relative="1" as="geometry">
            <mxPoint x="195" y="684" as="sourcePoint" />
            <mxPoint x="195" y="753.97" as="targetPoint" />
          </mxGeometry>
        </mxCell>
        <mxCell id="PiyPGpalVlDWMUJuXc9D-21" value="Передать&lt;div&gt;&amp;nbsp;информацию и блюде&lt;/div&gt;" style="edgeLabel;html=1;align=center;verticalAlign=middle;resizable=0;points=[];rotation=90;" vertex="1" connectable="0" parent="PiyPGpalVlDWMUJuXc9D-20">
          <mxGeometry x="0.1055" relative="1" as="geometry">
            <mxPoint x="-23" y="2" as="offset" />
          </mxGeometry>
        </mxCell>
        <mxCell id="PiyPGpalVlDWMUJuXc9D-22" style="rounded=0;orthogonalLoop=1;jettySize=auto;html=1;dashed=1;endArrow=open;endFill=0;exitX=0.75;exitY=1;exitDx=0;exitDy=0;" edge="1" parent="1">
          <mxGeometry relative="1" as="geometry">
            <mxPoint x="213" y="756" as="sourcePoint" />
            <mxPoint x="213" y="683" as="targetPoint" />
          </mxGeometry>
        </mxCell>
        <mxCell id="PiyPGpalVlDWMUJuXc9D-23" value="Приготовленное&lt;div&gt;&amp;nbsp;блюдо&lt;/div&gt;" style="edgeLabel;html=1;align=center;verticalAlign=middle;resizable=0;points=[];rotation=90;" vertex="1" connectable="0" parent="PiyPGpalVlDWMUJuXc9D-22">
          <mxGeometry x="-0.3296" y="1" relative="1" as="geometry">
            <mxPoint x="26" y="-8" as="offset" />
          </mxGeometry>
        </mxCell>
        <mxCell id="PiyPGpalVlDWMUJuXc9D-24" value="" style="endArrow=classic;html=1;rounded=0;" edge="1" parent="1">
          <mxGeometry width="50" height="50" relative="1" as="geometry">
            <mxPoint x="284" y="623" as="sourcePoint" />
            <mxPoint x="360" y="623" as="targetPoint" />
          </mxGeometry>
        </mxCell>
        <mxCell id="PiyPGpalVlDWMUJuXc9D-25" value="Запрос на&amp;nbsp;&lt;div&gt;добавление заказа&lt;/div&gt;" style="edgeLabel;html=1;align=center;verticalAlign=middle;resizable=0;points=[];" vertex="1" connectable="0" parent="PiyPGpalVlDWMUJuXc9D-24">
          <mxGeometry x="0.1055" relative="1" as="geometry">
            <mxPoint x="-5" y="-19" as="offset" />
          </mxGeometry>
        </mxCell>
        <mxCell id="PiyPGpalVlDWMUJuXc9D-26" style="rounded=0;orthogonalLoop=1;jettySize=auto;html=1;entryX=0.795;entryY=0.131;entryDx=0;entryDy=0;entryPerimeter=0;dashed=1;endArrow=open;endFill=0;" edge="1" parent="1">
          <mxGeometry relative="1" as="geometry">
            <mxPoint x="363" y="638" as="sourcePoint" />
            <mxPoint x="282" y="638" as="targetPoint" />
          </mxGeometry>
        </mxCell>
        <mxCell id="PiyPGpalVlDWMUJuXc9D-27" value="Статус заказа" style="edgeLabel;html=1;align=center;verticalAlign=middle;resizable=0;points=[];" vertex="1" connectable="0" parent="PiyPGpalVlDWMUJuXc9D-26">
          <mxGeometry x="-0.3296" y="1" relative="1" as="geometry">
            <mxPoint x="-12" y="17" as="offset" />
          </mxGeometry>
        </mxCell>
      </root>
    </mxGraphModel>
  </diagram>
</mxfile>
